<svg width="700" height="700" viewBox="0 0 700 700" fill="none" xmlns="http://www.w3.org/2000/svg">
<g clip-path="url(#clip0_1_2)">
<path d="M136.837 152.261L294.721 529.833L387.473 491.049L333.586 362.182L388.58 339.186C432.904 320.651 459.837 295.889 469.379 264.897C478.692 233.359 475.797 199.532 460.695 163.416C445.365 126.754 423.318 100.935 394.555 85.9612C365.564 70.4399 328.907 71.9464 284.583 90.4806L136.837 152.261ZM319.514 328.528L243.661 147.13L281.418 131.341C314.251 117.612 343.366 141.118 368.765 201.858C393.935 262.05 390.103 299.011 357.271 312.74L319.514 328.528Z" fill="#41B883"/>
<rect x="236" y="125" width="166" height="207" fill="#41B883"/>
<path d="M212 155H250.182L317 262.368L383.818 155H422L317 325L212 155ZM294.73 155L317 190.789L339.27 155H377.785L317 253.421L256.215 155H294.73Z" fill="white"/>
</g>
<defs>
<clipPath id="clip0_1_2">
<rect width="700" height="700" fill="white"/>
</clipPath>
</defs>
</svg>
